<?xml version="1.0" encoding="UTF-8" standalone="no"?>
<svg id="svg4149" xmlns:rdf="http://www.w3.org/1999/02/22-rdf-syntax-ns#" xmlns="http://www.w3.org/2000/svg" height="36.408mm" viewBox="0 0 154.56865 129.00402" width="43.623mm" version="1.1" xmlns:cc="http://creativecommons.org/ns#" xmlns:dc="http://purl.org/dc/elements/1.1/">
 <g id="layer1" style="fill:#0072ba" transform="translate(-304.73 -461.28)">
  <path id="path4168" style="fill:#0072ba" d="m347.43 576.37c-14.946-0.0196-28.803 3.3-37.926 9.0854l-4.7752 3.0284 3.1958-4.0351c13.392-15.551 26.929-22.461 41.768-22.948l11.31-0.35v-47.784h-27.242l6.697-7.0991c8.3934-8.8974 12.258-14.922 18.036-28.116 2.5129-5.7379 5.7929-11.879 7.2889-13.647l2.72-3.2149 6.25 2.1304 6.25 2.1304v99.79l3.4182 1.4282c9.3645 3.9128 21.052 5.9847 34.082 6.0417 12.546 0.0549 13.231-0.0524 19.602-3.0714 4.1353-1.9594 9.3294-5.696 13.901-10l7.2983-6.8717-3.9006 6.4097c-2.14 3.51-7.5 10.07-11.9 14.56-11.553 12.271-24.041 16.006-35.447 16.247-21.824 2.0694-41.601-13.251-60.619-13.723z"/>
 </g>
</svg>
