<?xml version="1.0" encoding="UTF-8" standalone="no"?>
<svg
   xmlns:dc="http://purl.org/dc/elements/1.1/"
   xmlns:cc="http://creativecommons.org/ns#"
   xmlns:rdf="http://www.w3.org/1999/02/22-rdf-syntax-ns#"
   xmlns:svg="http://www.w3.org/2000/svg"
   xmlns="http://www.w3.org/2000/svg"
   xmlns:sodipodi="http://sodipodi.sourceforge.net/DTD/sodipodi-0.dtd"
   xmlns:inkscape="http://www.inkscape.org/namespaces/inkscape"
   id="svg4149"
   height="36.408mm"
   viewBox="0 0 154.56865 129.00402"
   width="43.623mm"
   version="1.1"
   inkscape:version="0.91 r13725"
   sodipodi:docname="one.svg">
  <metadata
     id="metadata9">
    <rdf:RDF>
      <cc:Work
         rdf:about="">
        <dc:format>image/svg+xml</dc:format>
        <dc:type
           rdf:resource="http://purl.org/dc/dcmitype/StillImage" />
        <dc:title></dc:title>
      </cc:Work>
    </rdf:RDF>
  </metadata>
  <defs
     id="defs7" />
  <sodipodi:namedview
     pagecolor="#ffffff"
     bordercolor="#666666"
     borderopacity="1"
     objecttolerance="10"
     gridtolerance="10"
     guidetolerance="10"
     inkscape:pageopacity="0"
     inkscape:pageshadow="2"
     inkscape:window-width="640"
     inkscape:window-height="480"
     id="namedview5"
     showgrid="false"
     inkscape:zoom="4.746988"
     inkscape:cx="44.21066"
     inkscape:cy="81.84264"
     inkscape:current-layer="svg4149" />
  <g
     id="layer1"
     style="fill:#0072ba"
     transform="translate(-304.73 -461.28)">
    <path
       id="path4168"
       style="fill:#0072ba"
       d="m 347.43,576.37 c -14.946,-0.0196 -28.803,3.3 -37.926,9.0854 l -4.7752,3.0284 3.1958,-4.0351 c 13.392,-15.551 26.929,-22.461 41.768,-22.948 l 19.30996,-0.35 0,-47.784 -27.242,0 6.697,-7.0991 c 8.39342,-8.89738 12.258,-14.922 18.036,-28.116 2.5129,-5.7379 4.74468,-11.45768 6.24068,-13.22568 l 3.76822,-3.63622 6.25,2.1304 6.25,2.1304 0,99.79 4.52179,1.87228 c 6.8285,2.82737 11.94845,5.54062 24.97845,5.59762 12.546,0.0549 13.231,-0.0524 19.602,-3.0714 4.1353,-1.9594 9.3294,-5.696 13.901,-10 l 7.2983,-6.8717 -3.9006,6.4097 c -2.14,3.51 -7.5,10.07 -11.9,14.56 -11.553,12.271 -24.041,16.006 -35.447,16.247 -21.824,2.0694 -41.601,-13.251 -60.619,-13.723 z"
       inkscape:connector-curvature="0"
       sodipodi:nodetypes="ccccccccsccccccsscccccccc" />
  </g>
</svg>
