<?xml version="1.0" encoding="UTF-8" standalone="no"?>
<svg id="svg4213" xmlns:rdf="http://www.w3.org/1999/02/22-rdf-syntax-ns#" xmlns="http://www.w3.org/2000/svg" height="34.441mm" viewBox="0 0 154.26756 122.03551" width="43.538mm" version="1.1" xmlns:cc="http://creativecommons.org/ns#" xmlns:dc="http://purl.org/dc/elements/1.1/">
 <g id="layer1" style="fill:#0072ba" transform="translate(-296.73 -525.09)">
  <path id="path4234" style="fill:#0072ba" d="m383.24 645.87c-2.8914-0.80629-9.6414-3.3387-15-5.6276-13.276-5.6709-18.225-6.85-28.809-6.8638-14.946-0.0196-28.803 3.3-37.926 9.0854l-4.7752 3.0284 3.0398-3.8381c13.579-17.145 26.756-22.53 59.629-24.367 23.83-1.3321 29.161-2.5181 33.493-7.4521 2.6273-2.9923 3.1056-4.3417 3.1024-8.7529-0.005-6.4016-2.3568-10.602-8.0456-14.367-3.6307-2.4027-5.1097-2.7362-12.289-2.7709-4.4889-0.0217-10.897 0.34551-14.241 0.81603-5.8972 0.82985-6.1444 0.7728-8.25-1.904-2.697-3.4287-2.6931-3.7748 0.0794-6.977 1.9327-2.2323 3.4488-2.7273 10.75-3.5097 17.88-1.9162 23.936-5.9191 23.978-15.849 0.0412-9.9099-7.0678-15.331-20.105-15.331-6.2157 0-8.0982 0.47795-14.664 3.7229-5.1881 2.5641-9.5041 5.7235-13.866 10.15-3.6704 3.725-6.8075 6.1342-7.4613 5.7301-1.6504-1.02-0.40124-9.488 2.1321-14.454 3.1852-6.2436 10.275-12.741 17.786-16.299 6.5686-3.1118 9.5119-4.9422 21.201-4.9422 9.1298 0 14.73 1.8806 20.323 4.6269 14.96 7.3457 18.835 26.264 8.6675 42.316-1.2822 2.0242-1.0222 2.5092 3.7519 7 2.9628 2.787 6.2084 7.1482 7.6839 10.325 6.4754 13.942 0.2153 30.948-13.638 37.05l-5.2877 2.3289 5.5 0.86863c3.025 0.47774 9.55 0.72982 14.5 0.56016 12.025-0.41212 19.68-3.9267 29.517-13.551 3.8409-3.7581 6.9835-6.6696 6.9835-6.4699 0 0.19964-2.0831 3.5918-4.6292 7.5381-6.8996 10.694-17.466 20.624-26.916 25.296-7.6021 3.7576-8.212 3.887-19.402 4.1143-7.7565 0.15756-13.28-0.24707-16.81-1.2313z"/>
 </g>
</svg>
