<?xml version="1.0" encoding="UTF-8" standalone="no"?>
<svg id="svg4181" xmlns:rdf="http://www.w3.org/1999/02/22-rdf-syntax-ns#" xmlns="http://www.w3.org/2000/svg" height="33.817mm" viewBox="0 0 153.11238 119.82259" width="43.211mm" version="1.1" xmlns:cc="http://creativecommons.org/ns#" xmlns:dc="http://purl.org/dc/elements/1.1/">
 <g id="layer1" style="fill:#0072ba" transform="translate(-248.16 -471.14)">
  <path id="path4200" style="fill:#0072ba" d="m334.53 588.29c-2.8914-0.80629-9.6414-3.3387-15-5.6276-13.276-5.6709-18.225-6.85-28.809-6.8638-14.905-0.0195-28.804 3.3003-37.858 9.0424l-4.7075 2.9854 2.7521-3.6082c8.2832-10.86 24.48-21.713 34.361-23.023 3.7513-0.49763 5.0402-1.1588 5.8886-3.0208 1.9683-4.3198 9.4795-11.544 19.128-18.398 17.569-12.48 25.972-23.742 25.993-34.835 0.0123-6.7073-2.5681-10.638-8.7908-13.39-3.4682-1.5341-5.6137-1.8341-9.4649-1.3232-10.943 1.4516-20.152 6.7821-23.537 13.624-2.1737 4.3934-2.5527 4.2203-6.0768-2.775-1.1689-2.3202-2.121-6.1193-2.121-8.4629 0-3.8416 0.51557-4.7403 5.3328-9.2957 7.1384-6.7504 14.684-10.307 24.737-11.66 14.386-1.9361 25.179 1.4701 33.91 10.702 6.9359 7.3337 10.078 14.406 10.143 22.827 0.0971 12.65-1.1817 14.727-22.353 36.309-10.414 10.615-18.751 19.847-18.529 20.515 0.6189 1.8567 17.878 7.6247 28.086 9.3863 5.3282 0.9195 12.834 1.4284 18.132 1.2293 12.079-0.45384 19.735-3.9719 29.557-13.582 3.8409-3.7581 5.9644-7.6887 5.9644-7.489 0 0.19964-1.064 4.6109-3.6101 8.5572-6.8996 10.694-12.37 19.809-21.82 24.481-7.6021 3.7576-12.696 6.1291-23.886 6.3564-7.7565 0.15756-13.891-1.6738-17.421-2.6581z"/>
 </g>
</svg>
